<svg width="34" height="34" viewBox="0 0 34 34" fill="none" xmlns="http://www.w3.org/2000/svg">
<ellipse cx="17.1429" cy="16.9027" rx="16.2857" ry="16.0988" fill="#313131"/>
<path d="M24.4714 11.9298C24.4714 10.725 23.3956 9.66187 22.1763 9.66187H12.9238C11.7045 9.66187 10.6287 10.725 10.6287 11.9298V21.0724C10.6287 22.2772 11.7045 23.3403 12.9238 23.3403H17.5859V18.1666H15.8645V15.8987H17.5859V14.9773C17.5859 13.4181 18.7335 12.0715 20.168 12.0715H22.0328V14.3395H20.168C19.9528 14.3395 19.7376 14.5521 19.7376 14.9773V15.8987H22.0328V18.1666H19.7376V23.3403H22.1763C23.3956 23.3403 24.4714 22.2772 24.4714 21.0724V11.9298Z" fill="#C7C7C7"/>
</svg>
