<svg width="34" height="34" viewBox="0 0 34 34" fill="none" xmlns="http://www.w3.org/2000/svg">
<ellipse cx="17.0001" cy="16.9027" rx="16.2857" ry="16.0988" fill="#313131"/>
<path d="M22.3587 10.4646H12.4557C11.3376 10.4646 10.4857 11.3066 10.4857 12.4117V22.1997C10.4857 23.3048 11.3376 24.1467 12.4557 24.1467H22.3587C23.4767 24.1467 24.3286 23.3048 24.3286 22.1997V12.4117C24.3286 11.3066 23.4767 10.4646 22.3587 10.4646ZM17.4072 21.4103C19.6966 21.4103 21.56 19.6211 21.56 17.4635C21.56 17.0952 21.5068 16.6742 21.4003 16.3584H22.5716V21.9365C22.5716 22.1997 22.3587 22.4628 22.0392 22.4628H12.7751C12.5089 22.4628 12.2427 22.2523 12.2427 21.9365V16.3058H13.4673C13.3608 16.6742 13.3075 17.0425 13.3075 17.4109C13.2543 19.6211 15.1178 21.4103 17.4072 21.4103ZM17.4072 19.8316C15.9164 19.8316 14.7451 18.6739 14.7451 17.253C14.7451 15.8322 15.9164 14.6745 17.4072 14.6745C18.8979 14.6745 20.0693 15.8322 20.0693 17.253C20.0693 18.7265 18.8979 19.8316 17.4072 19.8316ZM22.5184 14.2009C22.5184 14.5166 22.2522 14.7797 21.9327 14.7797H20.442C20.1225 14.7797 19.8563 14.5166 19.8563 14.2009V12.78C19.8563 12.4643 20.1225 12.2012 20.442 12.2012H21.9327C22.2522 12.2012 22.5184 12.4643 22.5184 12.78V14.2009Z" fill="#C7C7C7"/>
</svg>
