<svg width="33" height="34" viewBox="0 0 33 34" fill="none" xmlns="http://www.w3.org/2000/svg">
<ellipse cx="16.2857" cy="16.9027" rx="16.2857" ry="16.0988" fill="#313131"/>
<path d="M23.3806 16.0293C23.3806 15.7171 23.328 15.3528 23.328 14.9365C23.2753 14.5202 23.2227 14.1039 23.1701 13.7397C23.0648 13.3234 22.9069 13.0111 22.591 12.751C22.3278 12.4908 21.9593 12.3346 21.5908 12.2826C20.3801 12.1265 18.5904 12.0745 16.1689 12.0745C13.7474 12.0745 11.905 12.1265 10.7469 12.2826C10.3784 12.3346 10.01 12.4908 9.74676 12.751C9.48356 13.0111 9.27299 13.3234 9.16771 13.7397C9.06243 14.1039 9.0098 14.4682 9.0098 14.9365C8.95716 15.3528 8.95715 15.7171 8.95715 16.0293C8.95715 16.3415 8.95715 16.7058 8.95715 17.2262C8.95715 17.7466 8.95715 18.1629 8.95715 18.4231C8.95715 18.7353 9.0098 19.0996 9.0098 19.5159C9.06244 19.9322 9.11507 20.3485 9.16771 20.7127C9.27299 21.129 9.43092 21.4412 9.74676 21.7014C10.01 21.9616 10.3784 22.1177 10.7469 22.1698C11.9577 22.3259 13.7474 22.3779 16.1689 22.3779C18.5904 22.3779 20.4328 22.3259 21.5908 22.1698C21.9593 22.1177 22.3278 21.9616 22.591 21.7014C22.8542 21.4412 23.0648 21.129 23.1701 20.7127C23.2753 20.3485 23.328 19.9842 23.328 19.5159C23.3806 19.0996 23.3806 18.7353 23.3806 18.4231C23.3806 18.1108 23.3806 17.7466 23.3806 17.2262C23.3806 16.7058 23.3806 16.2895 23.3806 16.0293ZM18.9588 17.6425L14.8002 20.1923C14.7476 20.2444 14.6423 20.2964 14.537 20.2964C14.4318 20.2964 14.3791 20.2964 14.2738 20.2444C14.1159 20.1403 14.0106 19.9842 14.0106 19.776V14.6243C14.0106 14.4162 14.1159 14.26 14.2738 14.156C14.4318 14.0519 14.6423 14.0519 14.8002 14.156L18.9588 16.7058C19.1167 16.8099 19.222 16.966 19.222 17.1221C19.222 17.2782 19.1167 17.5384 18.9588 17.6425Z" fill="#C7C7C7"/>
</svg>
